<svg xmlns="http://www.w3.org/2000/svg" viewBox="0 0 144.64 40.32"><defs><style>.cls-1{fill:#242021;}.cls-2{fill:#252122;}.cls-3{fill:#2a2727;}.cls-4{fill:#2d292a;}.cls-5{fill:#231f20;}</style></defs><g id="katman_2" data-name="katman 2"><g id="katman_1-2" data-name="katman 1"><path class="cls-1" d="M41.53,13.58c4.74-4.09,8.66-3.85,12,.37A7,7,0,0,1,58,10.76c4.44-1,7.94,1.47,8.15,6,.17,3.73,0,7.47.11,11.2,0,1-.3,1.36-1.35,1.35S63.5,29,63.52,27.93c.06-3.1,0-6.2,0-9.3,0-3.93-1.29-5.51-4.32-5.54s-5,2.11-5.06,5.69c-.07,2.93-.06,5.87,0,8.81,0,1.18-.22,1.67-1.55,1.69s-1.29-.75-1.28-1.66c0-3.09,0-6.19,0-9.29,0-3.28-1.25-4.95-3.7-5.24s-4.79,1.38-5.49,4.27c-.78,3.21-.19,6.49-.41,9.73,0,.81.76,2.13-1.17,2.18S39.15,28,39.14,27c-.06-4.6,0-9.21-.06-13.82,0-.88-.81-2.07,1.11-2.15C41.9,11,42,11.82,41.53,13.58Z"/><path class="cls-2" d="M37.64,29.05a5.18,5.18,0,0,1-5.84-1.92c-1.91-2.4-4.26-4.45-6.71-6.95-.58,2.74-.26,5.08-.29,7.38,0,1.12-.15,1.72-1.53,1.71s-1.22-.85-1.22-1.7q0-13,0-25.95C22,.65,22,0,23.37,0s1.42.56,1.41,1.6c0,5.63,0,11.25,0,17.41,2.38-2.24,4.57-4,6.4-6.13,1.59-1.82,3.36-2,5.82-1.59-2.6,2.4-5,4.69-7.48,6.83-1.23,1-1.08,1.65,0,2.69C32.26,23.46,34.88,26.23,37.64,29.05Z"/><path class="cls-1" d="M85.48,11.3l-8.71,8L86.34,29c-2.3.47-4,.29-5.62-1.52C78.55,25,76.08,22.77,73.29,20c0,3-.06,5.4,0,7.82,0,1.19-.41,1.45-1.52,1.46s-1.32-.36-1.32-1.37q.06-13.23,0-26.46c0-.95.13-1.46,1.27-1.42s1.58.21,1.56,1.44c-.06,4.93,0,9.86,0,14.78V19c2.22-2.08,4.23-3.72,6-5.63S82.65,10.59,85.48,11.3Z"/><path class="cls-2" d="M102.09,29.71c-3.5,0-5.06-1.5-5.16-4.72s-.09-6.35,0-9.52c0-1.44-.18-2.22-1.89-2-.77.09-2,.57-2-1.13s1.15-1.27,2-1.18c1.61.18,2.12-.46,1.92-2a15.62,15.62,0,0,1,0-2.37c0-1,.75-.85,1.38-.85s1.32,0,1.32.9c0,.4,0,.8,0,1.19,0,3.05,0,3,3.15,3.1.86,0,2.2-.63,2.14,1.25,0,1.72-1.27,1.06-2,1.09-3.24.1-3.25.06-3.24,3.25,0,2.54,0,5.08.06,7.61s1.18,3.24,3.56,2.82c.6-.11,1.51-1.11,1.73.45.15,1.12-.23,1.83-1.42,2C102.93,29.64,102.3,29.69,102.09,29.71Z"/><path class="cls-3" d="M88.2,19.92c0-2.46,0-4.92,0-7.38,0-.85-.06-1.52,1.18-1.49s1.52.33,1.51,1.49q-.08,7.62,0,15.24c0,1.16-.37,1.47-1.5,1.49s-1.2-.64-1.19-1.48C88.22,25.17,88.2,22.54,88.2,19.92Z"/><path class="cls-4" d="M89.52,2.42c1.21.14,2,.68,2,1.94A1.68,1.68,0,0,1,89.55,6c-1.15,0-2-.59-1.88-1.89S88.55,2.55,89.52,2.42Z"/><path class="cls-1" d="M127.88,26.92c0,3.91,0,7.68,0,11.46,0,.89.33,1.9-1.28,1.94s-1.44-1-1.44-2c0-8.25,0-16.5,0-24.75,0-.85-.9-2.27,1.13-2.5s1.34,1.39,1.67,2.31c5.67-3.75,10.87-3.56,14.38.48a10,10,0,0,1-.17,12.88C138.71,30.56,133.52,30.68,127.88,26.92ZM135,13.09a7.07,7.07,0,0,0-7.21,7A7.17,7.17,0,0,0,135,27.31a6.89,6.89,0,0,0,6.74-7.16A6.79,6.79,0,0,0,135,13.09Z"/><path class="cls-5" d="M2.57,13.44C8.75,9.6,13.85,9.86,17.28,14a10,10,0,0,1-.55,12.87c-3.66,3.74-9,3.76-13.77.05-.68.22-.39.8-.36,1.19.09,1.08-.54,1.08-1.33,1.1S0,29,0,28.07Q0,14.72,0,1.37C0,.32.33,0,1.36,0,2.56,0,2.59.63,2.58,1.5,2.56,5.44,2.57,9.37,2.57,13.44Zm7.12-.36a7.12,7.12,0,1,0,.07,14.23,6.79,6.79,0,0,0,6.69-7.17C16.43,16.05,13.61,13.1,9.69,13.08Z"/><path class="cls-1" d="M118.29,26.67c-2.06,2.77-4.63,3.29-7.45,3a5.35,5.35,0,0,1-5-4.36,5.19,5.19,0,0,1,3.4-6.09,15.22,15.22,0,0,1,7.25-1c1.81.11,2-.61,1.58-2.11-.88-3-4.54-4-8.19-2.1-.77.39-1.47,1.74-2.57.31-.61-.78-.79-1.27.18-1.85,3.26-1.94,6.69-2.58,10.23-1a5.27,5.27,0,0,1,3.12,5.19c0,3.64-.14,7.29.23,10.92.06.63.72,1.66-.78,1.7-1,0-2,0-1.86-1.42A7.21,7.21,0,0,0,118.29,26.67Zm-7.73-5.3a2.83,2.83,0,0,0-1.85,2.77,3,3,0,0,0,2.2,2.79,5.35,5.35,0,0,0,7.31-4.25c.33-1.73.08-2.88-2.13-2.43C114.25,20.51,112.31,20.43,110.56,21.37Z"/></g></g></svg>