<?xml version="1.0" encoding="utf-8"?>
<!-- Generator: Adobe Illustrator 23.0.4, SVG Export Plug-In . SVG Version: 6.00 Build 0)  -->
<svg version="1.1" id="Layer_1" xmlns="http://www.w3.org/2000/svg" xmlns:xlink="http://www.w3.org/1999/xlink" x="0px" y="0px"
	 viewBox="0 0 111 58.5" style="enable-background:new 0 0 111 58.5;" xml:space="preserve">
<style type="text/css">
	.st0{fill:#FFFFFF;}
	.st1{fill:none;}
	.st2{fill:#27306C;}
	.st3{fill:#F27121;}
</style>
<g id="DK_x5F_Analogo_3_">
	<g id="XMLID_430_">
		<path id="XMLID_435_" class="st0" d="M53.8,15.2c-0.1-0.1-0.3-0.1-0.4-0.1h-4c-0.2,0-0.3,0.1-0.5,0.2c-0.1,0.1-0.2,0.3-0.3,0.5
			l-3.1,17.6c-0.1,0.4,0.1,0.7,0.5,0.7h4c0.3,0,0.5-0.1,0.6-0.2c0.1-0.1,0.2-0.3,0.2-0.5l3.1-17.6C54,15.4,53.9,15.3,53.8,15.2z"/>
		<path id="XMLID_434_" class="st0" d="M26,33.8c0.1,0.1,0.3,0.2,0.4,0.2h4c0.2,0,0.3-0.1,0.5-0.2c0.2-0.1,0.3-0.3,0.3-0.5l1.3-7.5
			l3.4,7.5c0.1,0.2,0.2,0.4,0.3,0.5c0.1,0.1,0.3,0.2,0.5,0.2h4.9c0.2,0,0.4-0.1,0.4-0.2c0.1-0.2,0-0.3,0-0.4l-4.7-9.2l7.9-8.4
			c0.1-0.1,0.2-0.3,0.2-0.4c0-0.2-0.1-0.3-0.4-0.3h-5c-0.1,0-0.3,0-0.4,0.1c-0.2,0.1-0.3,0.2-0.5,0.4l-6,7.1l2.9-16.6h-5.3
			l-4.8,27.2C25.9,33.5,25.9,33.7,26,33.8z"/>
		<path id="XMLID_433_" class="st0" d="M54.6,8.5h-4.3c-0.3,0-0.5,0.1-0.6,0.2c-0.1,0.1-0.2,0.3-0.2,0.5L49,12.2
			c-0.1,0.4,0.1,0.7,0.5,0.7h4.3c0.3,0,0.5-0.1,0.6-0.2c0.1-0.1,0.2-0.3,0.2-0.5l0.5-3.1C55.3,8.7,55.1,8.5,54.6,8.5z"/>
		<path id="XMLID_432_" class="st0" d="M86.4,15.6c-1.1-0.3-2.2-0.5-3.4-0.6c-1.2-0.1-2.3-0.2-3.4-0.2c-2.6,0-4.7,0.6-6.4,1.9
			c-1.7,1.3-2.8,3.4-3.3,6.3c0,0.2-0.1,0.4-0.1,0.8c0,0.3-0.1,0.7-0.2,1c-0.1,0.4-0.2,0.8-0.2,1.3c0,0.3-0.1,0.6-0.1,0.9
			c0,0.3,0,0.6,0,0.9c0,0.8,0.1,1.6,0.3,2.4c0.2,0.8,0.5,1.4,1,2c0.4,0.6,1,1.1,1.7,1.4c0.7,0.4,1.6,0.5,2.5,0.5
			c0.9,0,1.7-0.1,2.5-0.4c0.1,0,0.2-0.1,0.3-0.2l0.8-4.3c-0.1,0-0.2,0.1-0.3,0.1c-0.6,0.2-1.2,0.3-1.8,0.3c-0.7,0-1.2-0.2-1.5-0.6
			c-0.3-0.4-0.4-0.9-0.4-1.4c0-0.4,0-0.7,0.1-1.1l0.6-3.5c0.2-1.3,0.6-2.4,1.2-3c0.5-0.7,1.4-1,2.6-1c0.5,0,0.9,0,1.4,0.1
			c0.5,0,0.8,0.1,1.2,0.1l-1.6,9.3c0,0,0,0,0,0l-0.6,3.7c0,0,0,0,0,0L79,33.3c0,0.2,0,0.4,0.1,0.5c0.1,0.1,0.3,0.2,0.4,0.2l4,0
			c0.3,0,0.4-0.1,0.5-0.2c0.1-0.1,0.2-0.3,0.2-0.5l2.9-16.7c0-0.3,0-0.5-0.1-0.7C87,15.8,86.7,15.7,86.4,15.6z"/>
		<path id="XMLID_431_" class="st0" d="M68.3,15h-2.7l0.6-3.5v-0.1c0-0.3-0.2-0.5-0.5-0.5h-0.1l-4.1,0.7c-0.2,0-0.4,0.1-0.5,0.2
			c-0.1,0.1-0.2,0.3-0.3,0.4L60.2,15h-2.6c-0.2,0-0.3,0.1-0.5,0.2c-0.2,0.1-0.3,0.3-0.3,0.5l-0.4,2.2V18c0,0.3,0.2,0.5,0.6,0.6
			l2.6,0.4l-1.7,9.6c0,0.3-0.1,0.6-0.1,0.9c0,0.3,0,0.6,0,0.8c0,1.5,0.4,2.5,1.2,3.1c0.8,0.6,2,0.9,3.5,0.9c0.5,0,0.9,0,1.3-0.1
			c0.4,0,0.8-0.1,1.4-0.2c0.4-0.1,0.7-0.3,0.7-0.7l0.5-2.6v-0.1c0-0.2-0.1-0.3-0.2-0.4c-0.1-0.1-0.3-0.1-0.4-0.1H64
			c-0.4,0-0.6,0-0.7-0.1c-0.1-0.1-0.2-0.3-0.2-0.5c0-0.2,0-0.5,0.1-0.9l1.7-9.6h2.7c0.2,0,0.3-0.1,0.5-0.2c0.1-0.1,0.2-0.3,0.3-0.5
			l0.5-2.7v-0.1C68.8,15.2,68.7,15,68.3,15z"/>
	</g>
	<path class="st0" d="M102.9,16.6c-1.2-1.2-2.9-1.8-5.1-1.8c-1.3,0-2.5,0.1-3.8,0.2c-1.3,0.2-2.4,0.4-3.4,0.6
		c-0.5,0.1-0.8,0.2-0.9,0.4c-0.1,0.1-0.2,0.3-0.3,0.6L88,24.9l-5.4,33.4l6.3-30.6l0,0l-4.4,26.7l5.1-24.6l0,0.1l-3.4,21.6l4.1-19.7
		l0,0.1l-2.9,17.8l3.4-16.3l0,0.1l-2.2,14l2.8-12.3l0,0.1l0.1-0.6l0,0v0l2.7-15.4c0.3,0,0.7-0.1,1.2-0.1c0.5,0,1,0,1.5,0
		c0.9,0,1.5,0.2,1.9,0.6c0.3,0.4,0.5,1,0.5,1.7c0,0.2,0,0.5,0,0.8c0,0.3-0.1,0.6-0.1,0.9l-0.4,2.6c-0.1,0.8-0.3,1.5-0.5,2
		c-0.2,0.5-0.5,0.9-0.8,1.2c-0.3,0.3-0.7,0.5-1.1,0.6c-0.4,0.1-0.9,0.2-1.4,0.2c-0.4,0-0.7,0-1.2,0L93,34.1c0.1,0,0.2,0,0.2,0
		c0.5,0,1,0.1,1.4,0.1c1.3,0,2.4-0.2,3.5-0.5c1.1-0.3,2-0.8,2.8-1.5c0.8-0.7,1.5-1.5,2-2.6c0.6-1.1,1-2.4,1.2-3.9l0.4-2.6
		c0-0.3,0.1-0.6,0.1-0.9c0-0.3,0-0.6,0-0.9C104.8,19.4,104.2,17.8,102.9,16.6z"/>
	<g id="XMLID_418_">
		<path id="XMLID_429_" class="st1" d="M54.6,8.5h-4.3c-0.3,0-0.5,0.1-0.6,0.2c-0.1,0.1-0.2,0.3-0.2,0.5L49,12.2
			c-0.1,0.4,0.1,0.7,0.5,0.7h4.3c0.3,0,0.5-0.1,0.6-0.2c0.1-0.1,0.2-0.3,0.2-0.5l0.5-3.1C55.3,8.7,55.1,8.5,54.6,8.5z"/>
		<path id="XMLID_428_" class="st1" d="M53.8,15.2c-0.1-0.1-0.3-0.1-0.4-0.1h-4c-0.2,0-0.3,0.1-0.5,0.2c-0.1,0.1-0.2,0.3-0.3,0.5
			l-3.1,17.6c-0.1,0.4,0.1,0.7,0.5,0.7h4c0.3,0,0.5-0.1,0.6-0.2c0.1-0.1,0.2-0.3,0.2-0.5l3.1-17.6C54,15.4,53.9,15.3,53.8,15.2z"/>
		<path id="XMLID_427_" class="st1" d="M68.3,15h-2.7l0.6-3.5v-0.1c0-0.3-0.2-0.5-0.5-0.5h-0.1l-4.1,0.7c-0.2,0-0.4,0.1-0.5,0.2
			c-0.1,0.1-0.2,0.3-0.3,0.4L60.2,15h-2.6c-0.2,0-0.3,0.1-0.5,0.2c-0.2,0.1-0.3,0.3-0.3,0.5l-0.4,2.2V18c0,0.3,0.2,0.5,0.6,0.6
			l2.6,0.4l-1.7,9.6c0,0.3-0.1,0.6-0.1,0.9c0,0.3,0,0.6,0,0.8c0,1.5,0.4,2.5,1.2,3.1c0.8,0.6,2,0.9,3.5,0.9c0.5,0,0.9,0,1.3-0.1
			c0.4,0,0.8-0.1,1.4-0.2c0.4-0.1,0.7-0.3,0.7-0.7l0.5-2.6v-0.1c0-0.2-0.1-0.3-0.2-0.4c-0.1-0.1-0.3-0.1-0.4-0.1H64
			c-0.4,0-0.6,0-0.7-0.1c-0.1-0.1-0.2-0.3-0.2-0.5c0-0.2,0-0.5,0.1-0.9l1.7-9.6h2.7c0.2,0,0.3-0.1,0.5-0.2c0.1-0.1,0.2-0.3,0.3-0.5
			l0.5-2.7v-0.1C68.8,15.2,68.7,15,68.3,15z"/>
		<path id="XMLID_426_" class="st1" d="M86.4,15.6c-1.1-0.3-2.2-0.5-3.4-0.6c-1.2-0.1-2.3-0.2-3.4-0.2c-2.6,0-4.7,0.6-6.4,1.9
			c-1.7,1.3-2.8,3.4-3.3,6.3c0,0.2-0.1,0.4-0.1,0.8c0,0.3-0.1,0.7-0.2,1c-0.1,0.4-0.2,0.8-0.2,1.3c0,0.3-0.1,0.6-0.1,0.9
			c0,0.3,0,0.6,0,0.9c0,0.8,0.1,1.6,0.3,2.4c0.2,0.8,0.5,1.4,1,2c0.4,0.6,1,1.1,1.7,1.4c0.7,0.4,1.6,0.5,2.5,0.5
			c0.9,0,1.7-0.1,2.5-0.4c0.1,0,0.2-0.1,0.3-0.2l0.8-4.3c-0.1,0-0.2,0.1-0.3,0.1c-0.6,0.2-1.2,0.3-1.8,0.3c-0.7,0-1.2-0.2-1.5-0.6
			c-0.3-0.4-0.4-0.9-0.4-1.4c0-0.4,0-0.7,0.1-1.1l0.6-3.5c0.2-1.3,0.6-2.4,1.2-3c0.5-0.7,1.4-1,2.6-1c0.5,0,0.9,0,1.4,0.1
			c0.5,0,0.8,0.1,1.2,0.1l-1.6,9.3c0,0,0,0,0,0l-0.6,3.7c0,0,0,0,0,0L79,33.3c0,0.2,0,0.4,0.1,0.5c0.1,0.1,0.3,0.2,0.4,0.2l4,0
			c0.3,0,0.4-0.1,0.5-0.2c0.1-0.1,0.2-0.3,0.2-0.5l2.9-16.7c0-0.3,0-0.5-0.1-0.7C87,15.8,86.7,15.7,86.4,15.6z"/>
		<path id="XMLID_420_" class="st2" d="M93.4,6.1h-4.1H78.7H36.1l-2.9,16.6l6-7.1c0.2-0.2,0.3-0.3,0.5-0.4c0.2-0.1,0.3-0.1,0.4-0.1
			h5c0.3,0,0.4,0.1,0.4,0.3c0,0.1-0.1,0.3-0.2,0.4l-7.9,8.4l4.7,9.2c0.1,0.1,0.1,0.3,0,0.4c-0.1,0.2-0.2,0.2-0.4,0.2h-4.9
			c-0.2,0-0.3-0.1-0.5-0.2c-0.1-0.1-0.3-0.3-0.3-0.5l-3.4-7.5l-1.3,7.5c0,0.2-0.1,0.3-0.3,0.5c-0.2,0.1-0.3,0.2-0.5,0.2h-4
			c-0.2,0-0.3-0.1-0.4-0.2c-0.1-0.1-0.2-0.3-0.1-0.5l4.8-27.2h-6h-1.2v30.8L0.4,40.4l0,0h23.8h61.1l0.1-0.7v0l4.1-23.1
			c0-0.3,0.1-0.5,0.3-0.6c0.1-0.1,0.4-0.3,0.9-0.4c1-0.2,2.1-0.4,3.4-0.6c1.3-0.2,2.5-0.2,3.8-0.2c2.2,0,3.9,0.6,5.1,1.8
			c1.2,1.2,1.8,2.8,1.8,4.8c0,0.3,0,0.6,0,0.9c0,0.3-0.1,0.6-0.1,0.9l-0.4,2.6c-0.3,1.5-0.7,2.8-1.2,3.9c-0.5,1.1-1.2,1.9-2,2.6
			c-0.8,0.7-1.7,1.2-2.8,1.5c-1.1,0.3-2.2,0.5-3.5,0.5c-0.5,0-0.9,0-1.4-0.1c-0.1,0-0.2,0-0.2,0l0.8-4.3c0.4,0,0.8,0,1.2,0
			c0.5,0,1-0.1,1.4-0.2c0.4-0.1,0.8-0.3,1.1-0.6c0.3-0.3,0.6-0.7,0.8-1.2c0.2-0.5,0.4-1.2,0.5-2l0.4-2.6c0-0.3,0.1-0.6,0.1-0.9
			c0-0.3,0-0.5,0-0.8c0-0.8-0.2-1.3-0.5-1.7c-0.3-0.4-1-0.6-1.9-0.6c-0.6,0-1.1,0-1.5,0c-0.5,0-0.9,0.1-1.2,0.1l-3.7,21.1h2.9
			c9.5,0,17.2-7.7,17.2-17.2v0C110.6,13.7,102.9,6.1,93.4,6.1z M53.9,15.7l-3.1,17.6c0,0.2-0.1,0.3-0.2,0.5
			c-0.1,0.1-0.3,0.2-0.6,0.2h-4c-0.4,0-0.6-0.2-0.5-0.7l3.1-17.6c0-0.2,0.1-0.3,0.3-0.5c0.1-0.1,0.3-0.2,0.5-0.2h4
			c0.2,0,0.3,0,0.4,0.1C53.9,15.3,54,15.4,53.9,15.7z M55.2,9.2l-0.5,3.1c0,0.2-0.1,0.3-0.2,0.5c-0.1,0.1-0.3,0.2-0.6,0.2h-4.3
			c-0.4,0-0.6-0.2-0.5-0.7l0.5-3.1c0-0.2,0.1-0.3,0.2-0.5c0.1-0.1,0.3-0.2,0.6-0.2h4.3C55.1,8.5,55.3,8.7,55.2,9.2z M68.8,15.7
			l-0.5,2.7c0,0.2-0.1,0.3-0.3,0.5C67.9,19,67.8,19,67.6,19h-2.7l-1.7,9.6c-0.1,0.4-0.1,0.7-0.1,0.9c0,0.2,0.1,0.4,0.2,0.5
			c0.1,0.1,0.4,0.1,0.7,0.1h1.6c0.2,0,0.3,0,0.4,0.1c0.1,0.1,0.2,0.2,0.2,0.4v0.1l-0.5,2.6c-0.1,0.4-0.3,0.6-0.7,0.7
			c-0.5,0.1-1,0.2-1.4,0.2c-0.4,0-0.8,0.1-1.3,0.1c-1.5,0-2.7-0.3-3.5-0.9c-0.8-0.6-1.2-1.6-1.2-3.1c0-0.2,0-0.5,0-0.8
			c0-0.3,0.1-0.6,0.1-0.9l1.7-9.6L57,18.6c-0.4-0.1-0.6-0.3-0.6-0.6v-0.1l0.4-2.2c0-0.2,0.1-0.3,0.3-0.5c0.2-0.1,0.3-0.2,0.5-0.2
			h2.6l0.5-2.7c0-0.2,0.1-0.3,0.3-0.4c0.1-0.1,0.3-0.2,0.5-0.2l4.1-0.7h0.1c0.3,0,0.5,0.2,0.5,0.5v0.1L65.6,15h2.7
			C68.7,15,68.8,15.2,68.8,15.7L68.8,15.7z M87.2,16.6l-2.9,16.7c0,0.2-0.1,0.3-0.2,0.5c-0.1,0.1-0.3,0.2-0.5,0.2l-4,0
			c-0.2,0-0.3-0.1-0.4-0.2c-0.1-0.1-0.2-0.3-0.1-0.5l0.1-0.9c0,0,0,0,0,0l0.6-3.7c0,0,0,0,0,0l1.6-9.3c-0.3,0-0.7-0.1-1.2-0.1
			c-0.5,0-0.9-0.1-1.4-0.1c-1.2,0-2.1,0.3-2.6,1c-0.5,0.7-0.9,1.7-1.2,3l-0.6,3.5c-0.1,0.4-0.1,0.7-0.1,1.1c0,0.6,0.1,1,0.4,1.4
			c0.3,0.4,0.8,0.6,1.5,0.6c0.6,0,1.2-0.1,1.8-0.3c0.1,0,0.2-0.1,0.3-0.1l-0.8,4.3c-0.1,0.1-0.2,0.1-0.3,0.2
			c-0.8,0.3-1.7,0.4-2.5,0.4c-1,0-1.8-0.2-2.5-0.5c-0.7-0.4-1.3-0.8-1.7-1.4c-0.4-0.6-0.8-1.3-1-2c-0.2-0.8-0.3-1.6-0.3-2.4
			c0-0.3,0-0.6,0-0.9c0-0.3,0.1-0.6,0.1-0.9c0.1-0.5,0.1-0.9,0.2-1.3c0.1-0.4,0.1-0.7,0.2-1c0-0.3,0.1-0.6,0.1-0.8
			c0.5-2.9,1.6-5,3.3-6.3c1.7-1.3,3.8-1.9,6.4-1.9c1.1,0,2.3,0.1,3.4,0.2c1.2,0.1,2.3,0.3,3.4,0.6c0.4,0.1,0.6,0.2,0.7,0.3
			C87.2,16,87.3,16.2,87.2,16.6z"/>
		<polygon id="XMLID_419_" class="st0" points="0.4,40.4 0.4,40.4 23.5,36.8 		"/>
	</g>
	<path id="XMLID_417_" class="st2" d="M88.1,25.4c0,0-5,29.2-5,30l5.7-28L88.1,25.4z"/>
	<path id="XMLID_416_" class="st2" d="M89,27.9c0,0-4,24-4.1,24.6l4.6-23L89,27.9z"/>
	<path id="XMLID_415_" class="st2" d="M89.7,30.2c0,0-3.2,19.3-3.2,19.8l3.7-18.5L89.7,30.2z"/>
	<path id="XMLID_414_" class="st2" d="M90.4,32.2c0,0-2.6,15.4-2.6,15.8l2.9-14.7L90.4,32.2z"/>
	<path id="XMLID_413_" class="st2" d="M88.9,46.3l2.3-11.4L91,34C91,34,89,46,88.9,46.3z"/>
	<g id="XMLID_408_">
		<path id="XMLID_412_" class="st0" d="M2.9,27.3c0,0.3,0.1,0.6,0.1,0.8c0.2,1,0.5,1.8,0.9,2.6c0.4,0.8,1,1.4,1.7,1.9
			c0.7,0.5,1.5,0.8,2.4,1c0.9,0.2,1.9,0.2,3,0c0.5-0.1,0.9-0.2,1.4-0.3l0-4.5c-0.4,0.1-0.9,0.2-1.3,0.3c-0.9,0.2-1.6,0.1-2-0.2
			c-0.4-0.3-0.7-0.9-0.8-1.6c0-0.2-0.1-0.5-0.1-0.8c0-0.3,0-0.6,0-0.9l0-2.6c0-0.7,0-1.3,0.1-1.8c0.1-0.5,0.2-1,0.5-1.4
			c0.2-0.4,0.5-0.7,0.9-0.9c0.4-0.2,0.9-0.4,1.5-0.5c0.4-0.1,0.8-0.1,1.3-0.2c0.5-0.1,0.9-0.1,1.3-0.1l0,7.5h0l0,7.5
			c0.3-0.1,0.7-0.2,1-0.3c1.2-0.4,2.3-0.8,3.2-1.2c0.4-0.2,0.7-0.4,0.8-0.5c0.1-0.2,0.2-0.4,0.2-0.6l0.1-23.5c0-0.4-0.2-0.6-0.7-0.5
			L14.3,7c-0.2,0-0.4,0.1-0.5,0.3c-0.1,0.1-0.1,0.3-0.1,0.5l0,5.8c-0.5,0-0.9,0-1.4,0.1c-0.5,0-0.9,0.1-1.2,0.1
			c-1.4,0.2-2.6,0.6-3.7,1.1c-1,0.5-1.9,1.1-2.6,2c-0.7,0.8-1.2,1.8-1.5,2.9c-0.3,1.1-0.5,2.5-0.5,4l0,2.6C2.8,26.7,2.8,27,2.9,27.3
			z"/>
		<path id="XMLID_409_" class="st3" d="M0.4,40.4l21-5.9V0.2l-21,5.9V40.4z M3.3,19.8c0.3-1.1,0.8-2.1,1.5-2.9
			c0.7-0.8,1.5-1.5,2.6-2c1-0.5,2.3-0.9,3.7-1.1c0.3-0.1,0.7-0.1,1.2-0.1c0.5,0,1-0.1,1.4-0.1l0-5.8c0-0.2,0.1-0.3,0.1-0.5
			C13.9,7.1,14.1,7,14.3,7l3.9-0.7c0.5-0.1,0.7,0.1,0.7,0.5l-0.1,23.5c0,0.3-0.1,0.5-0.2,0.6c-0.1,0.2-0.4,0.3-0.8,0.5
			c-0.9,0.4-2,0.8-3.2,1.2c-0.3,0.1-0.7,0.2-1,0.3l0-7.5h0l0-7.5c-0.4,0-0.8,0.1-1.3,0.1c-0.5,0.1-1,0.1-1.3,0.2
			c-0.6,0.1-1.1,0.3-1.5,0.5c-0.4,0.2-0.7,0.5-0.9,0.9c-0.2,0.4-0.4,0.8-0.5,1.4C8.1,21.6,8,22.2,8,22.9l0,2.6c0,0.3,0,0.6,0,0.9
			c0,0.3,0,0.6,0.1,0.8C8.3,28,8.6,28.5,9,28.9c0.4,0.3,1.1,0.4,2,0.2c0.5-0.1,0.9-0.2,1.3-0.3l0,4.5c-0.4,0.1-0.9,0.2-1.4,0.3
			c-1.1,0.2-2.1,0.2-3,0c-0.9-0.2-1.7-0.5-2.4-1c-0.7-0.5-1.2-1.1-1.7-1.9C3.5,30,3.2,29.1,3,28.1c0-0.3-0.1-0.6-0.1-0.8
			c0-0.3,0-0.6-0.1-0.9l0-2.6C2.8,22.3,3,20.9,3.3,19.8z"/>
	</g>
</g>
</svg>
