<svg xmlns="http://www.w3.org/2000/svg" width="392.435" height="297.552" viewBox="0 0 392.435 297.552"><g transform="translate(-72.87 -119.988)"><rect width="125.324" height="194.419" transform="translate(74.669 119.988)" fill="#003883"/><path d="M113.937,218.547v86.882h12.889q36.845,0,36.843-46.594,0-40.29-34.872-40.288Zm-22.743-8.922h51.854q22.9,0,35.026,15.227,10.766,13.378,10.765,34.138,0,25.37-15.92,40.75-15.315,14.609-39.271,14.608H91.194Z" fill="#fff" fill-rule="evenodd"/><rect width="125.323" height="194.419" transform="translate(339.981 119.988)" fill="#003883"/><path d="M390.086,214.874v43.112q2.023.162,3.894.162,20.555,0,20.552-23.166a44.124,44.124,0,0,0-.776-8.042q-1.559-8.688-9.189-11.1Q401.143,214.872,390.086,214.874ZM366.729,316.536V206.188H399.9q19.31,0,25.226,3.217,13.545,7.4,13.546,23,0,11.585-6.539,19.144-6.54,7.4-17.751,9.81,5.141,9.172,13.546,22.683,13.7,21.878,14.015,22.52l6.071,9.97q-11.675-.8-14.168-.8-2.339,0-14.016.8L401.3,282.76q-3.273-5.954-10.122-17.857h-1.091v51.633q-9.656-.8-11.678-.8Q376.54,315.734,366.729,316.536Z" fill="#fff" fill-rule="evenodd"/><rect width="390.635" height="8.951" transform="translate(74.669 408.589)" fill="#003883"/><path d="M96.126,368.4l-3.449,6.72a8.809,8.809,0,0,0-5.748-2.21,4.277,4.277,0,0,0-2.431.707,2.381,2.381,0,0,0-1.283,2.078q0,2.034,3.846,3.184l2.212.663a14.576,14.576,0,0,1,5.835,3.051,8.021,8.021,0,0,1,2.388,6.056q0,6.057-3.449,8.975a14.149,14.149,0,0,1-9.461,3.139,20.054,20.054,0,0,1-11.716-3.8l3.714-6.985q3.935,3.447,7.692,3.448a5.071,5.071,0,0,0,2.918-.84,2.881,2.881,0,0,0,1.283-2.52,2.992,2.992,0,0,0-1.946-2.608,16.123,16.123,0,0,0-3.316-1.194q-4.819-1.371-6.542-2.873-2.476-2.124-2.476-6.544a10.611,10.611,0,0,1,3.227-8.091,11.455,11.455,0,0,1,8.267-3.094A20.759,20.759,0,0,1,96.126,368.4Z" fill="#003883" fill-rule="evenodd"/><path d="M177.732,373.887v26h-8.665v-26H161.9v-7.34h22.989v7.34Z" fill="#003883" fill-rule="evenodd"/><path d="M267.65,373.843a9.286,9.286,0,0,0-6.631,2.652,8.251,8.251,0,0,0-2.786,6.146,9.915,9.915,0,0,0,2.741,7.118,9.292,9.292,0,0,0,13.352,0,9.911,9.911,0,0,0,2.741-7.118,8.248,8.248,0,0,0-2.786-6.146A9.282,9.282,0,0,0,267.65,373.843Zm0-8.4a18.7,18.7,0,0,1,12.822,4.775,15.911,15.911,0,0,1,5.614,12.38,17.708,17.708,0,0,1-18.436,18.39,17.643,17.643,0,0,1-18.436-18.39,15.912,15.912,0,0,1,5.615-12.38A18.7,18.7,0,0,1,267.65,365.442Z" fill="#003883" fill-rule="evenodd"/><path d="M361.637,373.18v8.312h.84q6.011,0,6.012-4.157t-6.012-4.155Zm8.576,13.042,10.478,13.661H369.9l-8.179-12.821h-.088v12.821h-8.666V366.547h12.954q5.216,0,8.266,2.476,3.318,2.653,3.317,7.782a10,10,0,0,1-1.857,6.1A8.321,8.321,0,0,1,370.213,386.222Z" fill="#003883" fill-rule="evenodd"/><path d="M464.862,373.887h-10.3v5.526h9.771v7.339H454.56v5.792h10.3v7.339H445.9V366.547h18.966Z" fill="#003883" fill-rule="evenodd"/><rect width="125.323" height="238.71" transform="translate(207.325 119.988)" fill="#d9000d"/><path d="M252.348,297.726q-11.832,8.2-11.832,19.3a22.622,22.622,0,0,0,4.982,13.834,24.163,24.163,0,0,0,10.122,7.4q2.645,1.122,8.408,1.124,9.808,0,15.881-6.6Q266.21,316.386,252.348,297.726Zm13.859-17.213a37.289,37.289,0,0,0,8.255-9.33q3.891-6.276,3.891-11.584a13.482,13.482,0,0,0-2.959-8.684,9.327,9.327,0,0,0-7.63-3.7q-11.21,0-11.21,11.743Q256.554,265.555,266.207,280.513Zm4.518,5.789,1.712,2.254,22.577,28.31q9.344-11.1,18.53-30.564l8.565,9.171a253.538,253.538,0,0,1-21.645,27.83q6.849,8.04,21.331,24.449v2.089q-12.456-.8-14.79-.8t-14.793.8l-7.943-11.419a57.766,57.766,0,0,1-15.415,9.651,46.191,46.191,0,0,1-17.594,3.859q-13.236,0-22.267-7.558-8.875-7.563-8.877-19.786,0-20.106,27.718-33.137a135.033,135.033,0,0,1-7.786-12.71,32.7,32.7,0,0,1-3.58-14.637q0-10.935,9.03-18.177a30.486,30.486,0,0,1,19.307-6.436q10.122,0,17.129,4.345,8.565,5.31,8.565,15.12Q290.5,273.275,270.725,286.3Z" fill="#fff" fill-rule="evenodd"/><rect width="125.324" height="44.291" transform="translate(74.669 314.407)" fill="#ffc900"/><path d="M97.114,324.68h6.972v25.774H99.569V333.021q0-.752.016-2.1.017-1.363.016-2.1l-4.391,21.63H90.5l-4.359-21.63q0,.735.016,2.1.015,1.347.015,2.1v17.433H81.661V324.68h7.05l4.218,20.265Z" fill="#003883" fill-rule="evenodd"/><path d="M111.632,324.68h4.926v15.842a9.831,9.831,0,0,0,.566,3.882q.88,2.169,3.84,2.168,2.942,0,3.824-2.168a9.849,9.849,0,0,0,.566-3.882V324.68h4.926v15.842a14.525,14.525,0,0,1-1.149,6.4q-2.14,4.2-8.167,4.2t-8.184-4.2a14.541,14.541,0,0,1-1.148-6.4Z" fill="#003883" fill-rule="evenodd"/><path d="M141.461,342.5a5.651,5.651,0,0,0,.866,2.642q1.181,1.59,4.045,1.591a7.733,7.733,0,0,0,2.784-.42,2.966,2.966,0,0,0,2.03-2.99,2.267,2.267,0,0,0-1.006-1.976,10.119,10.119,0,0,0-3.164-1.206l-2.455-.613a14.486,14.486,0,0,1-5-1.976q-2.346-1.784-2.346-5.577a7.848,7.848,0,0,1,2.266-5.753q2.267-2.292,6.657-2.291a9.39,9.39,0,0,1,6.248,2.168,8,8,0,0,1,2.722,6.26h-4.658a3.756,3.756,0,0,0-1.825-3.3,5.617,5.617,0,0,0-2.817-.648,4.863,4.863,0,0,0-2.991.84,2.765,2.765,0,0,0-1.117,2.343,2.263,2.263,0,0,0,1.1,2.063,12.535,12.535,0,0,0,3.022,1.067l4,1.066a9.873,9.873,0,0,1,3.966,1.871,6.624,6.624,0,0,1,2.077,5.263,7.808,7.808,0,0,1-2.44,5.876q-2.423,2.326-6.861,2.325a10.4,10.4,0,0,1-7.129-2.291,8.032,8.032,0,0,1-2.6-6.33Z" fill="#003883" fill-rule="evenodd"/><rect width="4.816" height="25.774" transform="translate(162.116 324.68)" fill="#003883"/><path d="M176.744,327.373a9.225,9.225,0,0,1,7.207-3.183q5.854,0,8.561,4.267a9.906,9.906,0,0,1,1.605,4.809H189.27a7.654,7.654,0,0,0-1.211-2.8,5.093,5.093,0,0,0-8.09.7,12.33,12.33,0,0,0-1.526,6.7q0,4.338,1.605,6.5a4.946,4.946,0,0,0,4.108,2.151,4.5,4.5,0,0,0,3.887-1.854,8.494,8.494,0,0,0,1.227-2.99h4.8a12,12,0,0,1-3.226,6.854,8.86,8.86,0,0,1-6.625,2.641,9.54,9.54,0,0,1-7.868-3.567q-2.866-3.585-2.865-9.828Q173.486,331.028,176.744,327.373Z" fill="#003883" fill-rule="evenodd"/><rect width="125.323" height="44.291" transform="translate(339.981 314.407)" fill="#ffc900"/><path d="M371.288,327.425a7.059,7.059,0,0,1,1.07,3.934,6.2,6.2,0,0,1-1.07,3.795,5.616,5.616,0,0,1-1.763,1.469A5.24,5.24,0,0,1,372.2,338.9a7.351,7.351,0,0,1,.913,3.776,8.126,8.126,0,0,1-1.039,4.108,6.9,6.9,0,0,1-1.652,2.03,6.158,6.158,0,0,1-2.644,1.293,14.6,14.6,0,0,1-3.29.35H353.977V324.68h11.268Q369.51,324.75,371.288,327.425ZM358.6,339.106v6.872h5.7a5.113,5.113,0,0,0,2.377-.455,3.329,3.329,0,0,0,1.542-3.217,2.81,2.81,0,0,0-1.495-2.763,5.467,5.467,0,0,0-2.345-.437Zm0-9.95v5.683h5.7a4.383,4.383,0,0,0,2.47-.629,2.537,2.537,0,0,0,.96-2.273,2.344,2.344,0,0,0-1.258-2.378,8.111,8.111,0,0,0-2.77-.4Z" fill="#003883" fill-rule="evenodd"/><path d="M396.942,348.163q-2.629,3.008-7.6,3.008t-7.6-3.008q-3.525-3.688-3.525-10.632,0-7.078,3.525-10.631,2.628-3.006,7.6-3.007t7.6,3.007q3.509,3.552,3.509,10.631Q400.451,344.475,396.942,348.163Zm-3.038-3.916a14.077,14.077,0,0,0,0-13.412,5.31,5.31,0,0,0-4.563-2.378,5.4,5.4,0,0,0-4.6,2.359,14,14,0,0,0,0,13.431,5.4,5.4,0,0,0,4.6,2.36A5.319,5.319,0,0,0,393.9,344.247Z" fill="#003883" fill-rule="evenodd"/><path d="M423.918,348.163q-2.628,3.008-7.6,3.008t-7.6-3.008q-3.527-3.688-3.526-10.632,0-7.078,3.526-10.631,2.627-3.006,7.6-3.007t7.6,3.007q3.51,3.552,3.509,10.631Q427.427,344.475,423.918,348.163Zm-3.037-3.916a14.084,14.084,0,0,0,0-13.412,5.313,5.313,0,0,0-4.565-2.378,5.4,5.4,0,0,0-4.6,2.359,14.006,14.006,0,0,0,0,13.431,5.4,5.4,0,0,0,4.6,2.36A5.323,5.323,0,0,0,420.881,344.247Z" fill="#003883" fill-rule="evenodd"/><path d="M433.11,324.68h4.768v10.614l8.954-10.614H453.1l-9.506,10.614,9.993,15.16h-6.232l-7.16-11.261-2.312,2.64v8.621H433.11Z" fill="#003883" fill-rule="evenodd"/></g></svg>