<?xml version="1.0" encoding="utf-8"?>
<svg version="1.1" id="Layer_1" xmlns="http://www.w3.org/2000/svg" xmlns:xlink="http://www.w3.org/1999/xlink" x="0px" y="0px"
	 viewBox="0 0 800 256" enable-background="new 0 0 800 256" xml:space="preserve">
<g id="Damla_yayınevi_x5F_web_2_">
	<path id="XMLID_163_" fill="#103A3E" d="M296.08,65.46c-2.26-5.44-5.74-10.03-10.33-13.63c-2.29-1.79-4.67-3.16-7.05-4.06
		c-2.41-0.9-4.93-1.56-7.49-1.94c-2.6-0.38-5.28-0.58-7.97-0.58h-8.37l-20.03-0.01c0.24,0.3,0.65,0.7,0.99,0.94
		c1.48,1.03,2.6,2.77,2.84,4.09c0.15,0.93,0.35,2.41,0.43,4.09c0.07,1.61,0.12,3.32,0.16,5.12c0.04,1.81,0.06,3.55,0.06,5.24v39.97
		c0,1.55,0.02,3.08,0.05,4.59c0.03,1.62-0.08,3.2-0.34,4.71c-0.27,1.57-0.85,3.06-2.59,4.61c-0.52,0.47-1.11,0.87-1.74,1.3h19.34
		l2.21-0.03c2.94,0,5.82-0.02,8.63-0.06c2.76-0.04,5.45-0.29,8.01-0.75c2.56-0.46,5.09-1.22,7.53-2.28c2.41-1.04,4.8-2.6,7.09-4.62
		c3.91-3.45,6.93-7.84,8.95-13.06c2.04-5.25,3.07-10.7,3.07-16.2C299.51,76.81,298.36,70.94,296.08,65.46z M281.67,92.76
		c-0.54,3.16-1.56,6.2-3.02,9.03c-1.06,2.07-2.45,4-4.21,5.53c-1.9,1.64-4.22,2.62-6.67,3.08c-3.31,0.62-6.78,0.84-10.12,0.42
		c-1-0.13-2.23-0.35-3.28-0.77l-0.71-0.28v-0.85l0.09-52.85v-1.01c0-0.18,3.36-0.55,3.74-0.58c5.06-0.45,10.57,0.44,14.9,3.2
		c2.78,1.77,4.93,4.36,6.43,7.28c1.36,2.65,2.32,5.63,2.86,8.86c0.54,3.19,0.81,6.38,0.81,9.47
		C282.48,86.46,282.21,89.65,281.67,92.76z"/>
	<path id="XMLID_160_" fill="#103A3E" d="M356.2,119.95h27.75c-0.8-0.82-1.52-1.6-2.11-2.3c-1.06-1.27-1.96-2.53-2.66-3.77
		c-0.71-1.27-1.33-2.61-1.85-4l-0.85-2.28l-0.97-2.59l-21.96-59.78h-25.08c0.39,0.38,0.75,0.78,1.1,1.2
		c1.08,1.32,1.63,2.92,1.63,4.76c0,1.39-0.35,3.08-1.07,5.16c-0.67,1.92-1.2,3.46-1.59,4.63l-16.25,46.93
		c-1.11,3-2.2,5.56-3.25,7.62c-0.75,1.47-1.86,2.94-3.23,4.41h19.49c-0.24-0.29-0.46-0.62-0.78-0.8c-3.11-1.76-3.6-3.71-3.6-5.66
		c0-1.38,5.2-17.75,5.2-17.75l30.28-0.18c0,0,4.44,13.56,4.57,14.11c0.14,0.62,0.45,1.44,0.45,2.56c0,2.19-1.4,4.15-2.55,5.39
		C358.52,118,356.71,119.5,356.2,119.95z M329.44,86.17l10.86-30.62l12.7,30.62H329.44z"/>
	<path id="XMLID_159_" fill="#103A3E" d="M453.33,120h22.47c-0.55-0.71-1.03-1.44-1.42-2.2c-0.71-1.4-1.3-2.94-1.74-4.59
		c-0.44-1.73-0.76-3.32-0.97-4.87c-0.22-1.62-0.4-3.27-0.55-4.94l-5.16-50.93c-0.17-1.11-0.16-2.15,0.02-3.04
		c0.18-0.89,0.5-1.7,0.95-2.42c0.33-0.57,0.8-1.16,1.4-1.78h-21.82l-14.65,44.51l-16.06-44.51h-22.03c0.78,1.02,1.45,2.1,1.95,3.26
		c0.85,1.97,1.16,4.22,0.93,6.7l-5.28,49.42c-0.15,1.57-0.32,3.13-0.5,4.66c-0.19,1.61-0.48,3.15-0.86,4.59
		c-0.4,1.53-0.97,2.97-1.7,4.29c-0.35,0.63-0.77,1.22-1.22,1.79h15.92c-0.57-0.61-1.09-1.28-1.5-2.03
		c-1.01-1.77-1.43-3.83-1.26-6.13l3.74-40.61l0.53-8.58l13.24,38.9c1.01,2.94,2.04,5.66,3.09,8.09c0.97,2.26,2.66,4.25,5.02,5.91
		c1.59,1.08,4,2.37,5.72,3.37c1.31,0.78,19.35-56.27,19.35-56.27l5.44,49.11c0.17,1.79-0.89,4.4-1.77,6.12
		C454.21,118.64,453.78,119.35,453.33,120z"/>
	<path id="XMLID_158_" fill="#103A3E" d="M517.28,110.24c-2.8,0.48-15.65,0.42-17.66-0.49l-0.71-0.32v-0.78l0.06-47.47
		c0-1.55-0.01-3.1-0.06-4.65c-0.04-1.67,0.09-3.27,0.38-4.78c0.29-1.53,0.75-3.06,1.61-4.4c0.45-0.7,1.31-1.61,2.08-2.14
		l-23.21,0.03c1.27,0.68,2.3,1.24,2.8,1.8c1.43,1.61,1.79,2.37,1.97,4.35c0.14,1.55,0.34,56.1,0.37,57.61
		c0.05,1.6-0.14,3.18-0.37,4.71c-0.29,1.88-0.59,2.99-1.66,4.08c-0.45,0.45-1.9,1.43-3.09,2.14h41.88l4.97-14.84
		C523.47,107.55,521.45,109.52,517.28,110.24z"/>
	<path id="XMLID_155_" fill="#103A3E" d="M578.92,119.95h27.75c-0.8-0.82-1.52-1.6-2.11-2.3c-1.06-1.27-1.96-2.53-2.66-3.77
		c-0.71-1.27-1.33-2.61-1.85-4l-0.85-2.28l-0.97-2.59l-21.96-59.78h-25.08c0.39,0.38,0.75,0.78,1.1,1.2
		c1.08,1.32,1.63,2.92,1.63,4.76c0,1.39-0.35,3.08-1.07,5.16c-0.67,1.92-1.2,3.46-1.59,4.63l-16.25,46.93
		c-1.11,3-2.2,5.56-3.25,7.62c-0.75,1.47-1.86,2.94-3.23,4.41h19.49c-0.24-0.29-0.46-0.62-0.78-0.8c-3.11-1.76-3.6-3.71-3.6-5.66
		c0-1.38,5.2-17.75,5.2-17.75l30.28-0.18c0,0,4.44,13.56,4.57,14.11c0.14,0.62,0.45,1.44,0.45,2.56c0,2.19-1.4,4.15-2.55,5.39
		C581.23,118,579.43,119.5,578.92,119.95z M552.15,86.17l10.86-30.62l12.7,30.62H552.15z"/>
	<path id="XMLID_154_" fill="#103A3E" d="M273.36,205.19c-0.31-1.43-0.51-2.94-0.58-4.48c-0.08-1.51-0.12-3.13-0.12-4.88l-0.02-17.8
		l0-0.29l0.12-0.26l20.57-40.5l-15.43,0c0.26,0.31,0.49,0.63,0.69,0.96c0.67,1.13,1.01,2.61,1.01,4.4c0,1.41-0.33,2.96-0.97,4.63
		c-0.6,1.56-1.17,2.9-1.7,4.02l-6.21,13.37l-2.17,4.09l-2.13-4.09l-12.72-27.38l-19.61,0c2.21,1.47,2.63,1.81,3.46,2.58
		c1.48,1.38,2.69,3.06,3.93,5.07L258,177.51l0.13,0.27v0.3l0,18.07c0,1.55,0.02,3.11,0.06,4.67c0.04,1.65-0.08,3.26-0.35,4.77
		c-0.28,1.58-0.57,2.44-1.65,3.68c-0.85,0.99-1.58,1.51-3.52,2.53l26,0c-0.88-0.64-1.65-1.48-2.4-2.27
		C275.03,208.24,273.67,206.66,273.36,205.19z"/>
	<path id="XMLID_151_" fill="#103A3E" d="M348.85,211.8l27.75,0c-0.8-0.82-1.52-1.6-2.11-2.3c-1.06-1.27-1.96-2.54-2.66-3.77
		c-0.71-1.27-1.33-2.62-1.85-4.01l-0.85-2.28l-0.97-2.59l-21.96-59.83l-25.08,0c0.39,0.38,0.75,0.78,1.1,1.2
		c1.08,1.32,1.63,2.92,1.63,4.77c0,1.39-0.35,3.08-1.07,5.17c-0.67,1.92-1.2,3.46-1.59,4.64l-16.24,46.97
		c-1.11,3.01-2.2,5.56-3.24,7.63c-0.75,1.47-1.86,2.95-3.23,4.42l19.49,0c-0.24-0.29-0.46-0.62-0.78-0.8
		c-3.11-1.76-3.6-3.72-3.61-5.67c0-1.38,5.19-17.76,5.19-17.76l30.28-0.18c0,0,4.44,13.57,4.57,14.12c0.14,0.62,0.45,1.44,0.45,2.56
		c0,2.19-1.4,4.15-2.55,5.4C351.17,209.85,349.37,211.35,348.85,211.8z M322.08,177.99l10.86-30.65l12.7,30.65L322.08,177.99z"/>
	<path id="XMLID_150_" fill="#103A3E" d="M416.54,205.19c-0.31-1.43-0.51-2.94-0.58-4.48c-0.08-1.51-0.12-3.13-0.12-4.88l-0.02-17.8
		v-0.29l0.12-0.26l20.57-40.5l-15.43,0c0.26,0.31,0.49,0.63,0.69,0.96c0.67,1.13,1.01,2.61,1.01,4.4c0,1.41-0.33,2.96-0.97,4.63
		c-0.6,1.56-1.17,2.9-1.7,4.02l-6.21,13.37l-2.17,4.09l-2.13-4.09l-12.72-27.38l-19.61,0c2.21,1.47,2.63,1.81,3.46,2.58
		c1.48,1.38,2.69,3.06,3.93,5.07l16.53,32.87l0.13,0.27v0.3l0,18.07c0,1.55,0.02,3.11,0.06,4.67c0.04,1.65-0.08,3.26-0.35,4.77
		c-0.28,1.58-0.57,2.44-1.65,3.68c-0.85,0.99-1.58,1.51-3.52,2.53l26,0c-0.88-0.64-1.65-1.48-2.4-2.27
		C418.22,208.24,416.86,206.66,416.54,205.19z"/>
	<path id="XMLID_149_" fill="#103A3E" d="M463.44,209.62c-0.91-1.15-1.43-2.56-1.65-4.11c-0.21-1.48-0.31-3.04-0.28-4.64
		c0.03-1.52,0.04-3.06,0.04-4.61V152.5c0-1.48-0.01-2.99-0.04-4.54c-0.03-1.67,0.07-3.28,0.29-4.79c0.22-1.56,0.75-2.98,1.67-4.15
		c0.61-0.77,1.07-1.12,2.19-2.1h-11.88h-9.19h-1.69c1.12,0.98,1.59,1.33,2.19,2.1c0.92,1.16,1.45,2.58,1.67,4.15
		c0.22,1.51,0.31,3.11,0.29,4.79c-0.03,1.55-0.04,3.06-0.04,4.54v20.22c0.01-0.01,0.02-0.02,0.03-0.03v3.24c0,0-0.01-0.01-0.01-0.01
		v2.91c0,0-0.01,0-0.01,0v12.04c0,0,0.01,0,0.01,0v5.26c0,1.48,0.01,2.99,0.04,4.54c0.03,1.67-0.07,3.28-0.29,4.79
		c-0.22,1.56-0.75,2.98-1.67,4.15c-0.61,0.77-1.07,1.12-2.19,2.1h1.68h9.2h0.96h9.24h1.64
		C464.51,210.74,464.05,210.38,463.44,209.62z"/>
	<path id="XMLID_148_" fill="#103A3E" d="M514.51,198.09c5.63,8.45,15.62,12.95,18.06,13.96v-59.34c0-3.45,0.22-6.59,0.66-9.33
		c0.36-2.3,1.35-4.53,2.94-6.63h-16.2c1.59,2.1,2.57,4.33,2.93,6.64c0.44,2.74,0.66,5.88,0.66,9.33v30.45v3.53l-34.84-49.94h-19.48
		c0.87,1.16,1.6,2.24,2.2,3.23c0.87,1.47,1.54,2.97,2,4.46c0.46,1.54,0.75,3.16,0.86,4.83c0.11,1.62,0.16,3.61,0.16,5.9v40.57
		c0,1.75-0.03,3.38-0.11,4.89c-0.08,1.56-0.27,3.07-0.57,4.49c-0.31,1.49-0.84,2.95-1.56,4.33c-0.41,0.77-0.89,1.52-1.45,2.25
		l18.55,0.03c-0.8-0.58-1.46-1.32-1.99-2.02c-0.76-1.01-0.99-1.16-2.1-4.05c-0.52-1.35-0.46-3.16-0.54-4.72
		c-0.07-1.52-0.11-3.14-0.11-4.89v-40.4l0.25,0.43l7.3,9.15L514.51,198.09z"/>
	<path id="XMLID_147_" fill="#103A3E" d="M578.39,202.91c-1.86,0.08-7.19-0.1-9.29-0.3c-2.08-0.21-4.13-0.73-6.08-1.54l-0.71-0.3
		v-0.82v-23.47v-1.2h4.45h3.66h3.22c1.18,0,2.32,0.13,3.4,0.38c1.14,0.27,2.17,0.75,3.07,1.42c0.18,0.13,0.35,0.28,0.51,0.44
		l-0.05-11.48c-0.35,0.09-0.73,0.16-1.14,0.21c-0.74,0.09-1.53,0.12-2.39,0.12H566.7h-4.41v-1.2l0.05-17.8v-1.2h4.41h3.55h4.16
		c1.49,0,2.95,0.14,4.36,0.43c1.44,0.29,2.79,0.81,4.01,1.54c0.51,0.3,0.99,0.67,1.43,1.12v-12.4c-0.41,0.1-0.85,0.16-1.32,0.18
		c-0.87,0.04-1.72,0.06-2.55,0.06h-36.03c0.46,0.53,0.86,1.1,1.19,1.71c0.72,1.35,1.23,2.84,1.52,4.41
		c0.27,1.54,0.38,3.14,0.35,4.77c-0.04,1.55-0.05,3.07-0.05,4.54v43.78c0,1.55,0.01,3.08,0.05,4.59c0.03,1.61-0.08,3.18-0.35,4.7
		c-0.29,1.59-0.8,3.06-1.53,4.37c-0.34,0.62-0.76,1.21-1.25,1.76l42.69,0.14l4.22-15.5c-1.76,1.88-3.46,4.11-6.37,5.26
		C582.05,202.75,581.65,202.77,578.39,202.91z"/>
	<path id="XMLID_146_" fill="#103A3E" d="M645.55,136.98c0.24,0.21,0.43,0.44,0.65,0.66c0.81,0.35,2.52,1.22,3.05,2.51
		c0,0,1.04,2.08,0.44,4.43l-16.53,53.55l-1.07-2.9l-0.01,0.02l-0.32-0.89l-0.26-0.69l0-0.02l-0.58-1.64L616.11,150
		c-0.25-0.79-0.58-1.71-1-2.84c-0.43-1.16-0.84-2.35-1.24-3.59c-0.4-1.24-0.73-2.45-1.02-3.62c-0.26-1.09-0.41-2.09-0.43-2.98h-19.9
		c2.42,2.12,3.41,4.34,3.41,4.34s13.21,35.61,17.92,49.13c4.7,13.53,11.15,15.68,11.15,15.68l10.52,5.68l26.17-74.83H645.55z"/>
	<g id="XMLID_143_">
		<path id="XMLID_145_" fill="#103A3E" d="M685.75,209.53c-0.91-1.15-1.43-2.56-1.65-4.11c-0.21-1.48-0.31-3.04-0.28-4.64
			c0.03-1.52,0.04-3.06,0.04-4.61v-43.76c0-1.48-0.01-2.99-0.04-4.54c-0.03-1.67,0.07-3.28,0.29-4.79c0.22-1.56,0.75-2.98,1.67-4.15
			c0.61-0.77,1.07-1.12,2.19-2.1h-11.88h-9.19h-1.69c1.12,0.98,1.59,1.33,2.19,2.1c0.92,1.16,1.45,2.58,1.67,4.15
			c0.22,1.51,0.31,3.11,0.29,4.79c-0.03,1.55-0.04,3.06-0.04,4.54v20.22c0.01-0.01,0.02-0.02,0.03-0.03v3.24
			c0,0-0.01-0.01-0.01-0.01v2.91c0,0-0.01,0-0.01,0v12.04c0,0,0.01,0,0.01,0v5.26c0,1.48,0.01,2.99,0.04,4.54
			c0.03,1.67-0.07,3.28-0.29,4.79c-0.22,1.56-0.75,2.98-1.67,4.15c-0.61,0.77-1.07,1.12-2.19,2.1h1.68h9.2h0.96h9.24h1.64
			C686.82,210.65,686.35,210.3,685.75,209.53z"/>
		<circle id="XMLID_144_" fill="#103A3E" cx="676.11" cy="123.14" r="7.52"/>
	</g>
	<path id="XMLID_138_" fill="#103A3E" d="M713.09,142.59c-0.51-1.2-1.2-2.24-2.07-3.13c-0.87-0.89-1.9-1.6-3.08-2.11
		c-1.18-0.52-2.44-0.78-3.78-0.78c-1.36,0-2.64,0.25-3.82,0.76c-1.19,0.51-2.23,1.2-3.12,2.09c-0.89,0.88-1.6,1.92-2.11,3.1
		c-0.52,1.19-0.78,2.47-0.78,3.85c0,1.36,0.25,2.64,0.75,3.85c0.5,1.21,1.19,2.26,2.07,3.16c0.88,0.9,1.91,1.62,3.09,2.14
		c1.18,0.53,2.45,0.79,3.81,0.79c1.34,0,2.61-0.26,3.81-0.77c1.2-0.52,2.24-1.22,3.12-2.11c0.88-0.89,1.58-1.94,2.1-3.14
		c0.52-1.2,0.78-2.49,0.78-3.87C713.86,145.07,713.6,143.79,713.09,142.59z M704.03,154.97c-1.09,0-2.11-0.24-3.06-0.64h0.13v-5.99
		h2.85l3.49,5.93c-0.03,0.01-0.05,0.04-0.07,0.05C706.32,154.75,705.21,154.97,704.03,154.97z M701.09,146.88v-4.44h3.63
		c0.37,0,0.74,0.02,1.13,0.06c0.39,0.04,0.75,0.14,1.07,0.28c0.32,0.14,0.59,0.35,0.79,0.63c0.21,0.28,0.31,0.66,0.31,1.13
		c0,0.54-0.11,0.96-0.32,1.26c-0.22,0.3-0.49,0.53-0.83,0.7c-0.34,0.16-0.71,0.26-1.14,0.31c-0.42,0.04-0.84,0.07-1.24,0.07H701.09z
		 M711.9,149.75c-0.44,1.05-1.05,1.96-1.83,2.73c-0.32,0.32-0.75,0.49-1.12,0.75l-3.07-4.9c1.17-0.04,2.12-0.35,2.87-0.92
		c0.75-0.57,1.12-1.48,1.12-2.74c0-0.76-0.13-1.37-0.39-1.85c-0.26-0.47-0.61-0.84-1.04-1.1c-0.43-0.26-0.93-0.44-1.51-0.53
		c-0.57-0.1-1.17-0.15-1.8-0.15h-5.89v12.17c-0.37-0.28-0.82-0.47-1.14-0.81c-0.75-0.78-1.34-1.7-1.77-2.74
		c-0.43-1.05-0.64-2.15-0.64-3.32c0-1.15,0.22-2.24,0.66-3.26c0.44-1.02,1.05-1.92,1.81-2.69c0.77-0.77,1.65-1.37,2.66-1.83
		c1.01-0.45,2.08-0.67,3.23-0.67c1.17,0,2.27,0.22,3.29,0.66c1.03,0.44,1.93,1.04,2.7,1.81c0.77,0.77,1.39,1.67,1.84,2.7
		c0.45,1.03,0.68,2.14,0.68,3.31C712.56,147.58,712.34,148.71,711.9,149.75z"/>
	<g id="XMLID_135_">
		<defs>
			<path id="XMLID_136_" d="M171.46,89.39c0,0.36,0,0.72,0,1.07c0,0-0.16,44.66-0.6,84.59c-0.02,1.84-0.12,5.91-1.81,10.75
				c-3.14,8.96-9.42,13.97-12.63,16.46c-1.95,1.51-9.65,7.21-21.36,8.67c-2.79,0.35-11.42,1.15-21.5-2.62
				c-3.23-1.21-11.87-4.56-18.95-13.3c-2.15-2.66-7.07-8.88-8.2-17.4c-0.79-5.96,0.43-11.89,0.6-12.7c0.05-0.24,0.39-1.8,0.87-3.36
				c0.87-2.78,3.15-8.54,9.61-15.12c6.79-5.42,13.62-10.84,20.49-16.26c17.6-13.88,35.14-27.5,52.61-40.85"/>
		</defs>
		<use xlink:href="#XMLID_136_"  overflow="visible" fill="#E6C220"/>
		<clipPath id="XMLID_2_">
			<use xlink:href="#XMLID_136_"  overflow="visible"/>
		</clipPath>
	</g>
	<rect x="180.09" y="43.95" fill="#007549" width="35.42" height="167.13"/>
</g>
</svg>
